<svg width="1200" height="934" viewBox="0 0 1200 934" fill="none" xmlns="http://www.w3.org/2000/svg">
<path d="M1188.42 600.657V586.275H1184.67L1180.33 596.154L1176.02 586.275H1172.25V600.657H1174.91V589.812L1178.97 599.172H1181.72L1185.78 589.788V600.657H1188.42ZM1164.63 600.657V588.727H1169.44V586.298H1157.18V588.727H1161.99V600.657H1164.63Z" fill="#0099DF" style="fill:#0099DF;fill:color(display-p3 0.0000 0.6000 0.8745);fill-opacity:1;"/>
<path d="M762.254 662.414H437.773V79.282H762.254V662.414Z" fill="#2271CE" style="fill:#2271CE;fill:color(display-p3 0.1333 0.4431 0.8078);fill-opacity:1;"/>
<path d="M458.357 370.86C458.357 252.569 513.741 147.199 599.99 79.2942C536.919 29.6388 457.319 0.00122191 370.811 0.00122191C166.012 0.00122191 -0.000732422 166.038 -0.000732422 370.86C-0.000732422 575.683 166.012 741.719 370.811 741.719C457.319 741.719 536.919 712.082 599.99 662.427C513.741 594.522 458.357 489.151 458.357 370.86Z" fill="#005EB6" style="fill:#005EB6;fill:color(display-p3 0.0000 0.3686 0.7137);fill-opacity:1;"/>
<path d="M1200 370.86C1200 575.683 1033.99 741.719 829.19 741.719C742.682 741.719 663.082 712.082 600.011 662.427C686.259 594.522 741.644 489.151 741.644 370.86C741.644 252.569 686.259 147.199 600.011 79.2942C663.082 29.6388 742.682 0.00122191 829.19 0.00122191C1033.99 0.00122191 1200 166.038 1200 370.86Z" fill="#0099DF" style="fill:#0099DF;fill:color(display-p3 0.0000 0.6000 0.8745);fill-opacity:1;"/>
<path d="M878.285 920.718V923.146H880.525C881.02 923.146 881.445 923.028 881.728 922.84C882.034 922.651 882.199 922.321 882.199 921.92C882.199 921.519 882.034 921.213 881.728 921.024C881.445 920.812 881.02 920.718 880.525 920.718H878.285ZM880.549 919.02C881.704 919.02 882.6 919.279 883.237 919.798C883.873 920.317 884.18 921.024 884.18 921.92C884.18 922.675 883.944 923.288 883.425 923.783C882.93 924.254 882.199 924.561 881.28 924.679L884.251 928.098H881.94L879.181 924.702H878.285V928.098H876.352V919.02H880.549ZM879.959 931.21C881.02 931.21 882.011 931.021 882.907 930.621C883.826 930.22 884.628 929.677 885.312 928.994C885.995 928.31 886.538 927.508 886.938 926.565C887.316 925.646 887.528 924.655 887.528 923.594C887.528 922.533 887.316 921.543 886.938 920.623C886.538 919.704 885.995 918.879 885.312 918.195C884.628 917.511 883.826 916.969 882.907 916.592C882.011 916.191 881.02 916.002 879.959 916.002C878.898 916.002 877.884 916.191 876.941 916.592C876.022 916.969 875.197 917.511 874.513 918.195C873.829 918.879 873.287 919.704 872.91 920.623C872.509 921.543 872.32 922.533 872.32 923.594C872.32 924.655 872.509 925.646 872.91 926.565C873.287 927.508 873.829 928.31 874.513 928.994C875.197 929.677 876.022 930.22 876.941 930.621C877.884 931.021 878.898 931.21 879.959 931.21ZM879.959 913.809C881.327 913.809 882.624 914.069 883.826 914.587C885.052 915.083 886.09 915.79 887.009 916.686C887.905 917.558 888.613 918.596 889.131 919.798C889.65 920.977 889.909 922.25 889.909 923.594C889.909 924.938 889.65 926.211 889.131 927.39C888.613 928.569 887.905 929.607 887.009 930.479C886.09 931.375 885.052 932.082 883.826 932.601C882.624 933.12 881.327 933.379 879.959 933.379C878.545 933.379 877.248 933.12 876.022 932.601C874.796 932.082 873.735 931.375 872.839 930.479C871.943 929.607 871.235 928.569 870.717 927.39C870.198 926.211 869.939 924.938 869.939 923.594C869.939 922.25 870.198 920.977 870.717 919.798C871.235 918.596 871.943 917.558 872.839 916.686C873.735 915.79 874.796 915.083 876.022 914.587C877.248 914.069 878.545 913.809 879.959 913.809Z" fill="#242021" style="fill:#242021;fill:color(display-p3 0.1412 0.1255 0.1294);fill-opacity:1;"/>
<path d="M851.715 837.429C841.412 830.638 827.194 827.125 811.562 827.125C786.616 827.125 770.56 839.079 770.56 858.649C770.56 874.706 782.514 884.585 804.536 887.697L814.651 889.135C826.369 890.786 831.933 893.874 831.933 899.415C831.933 907.055 824.105 911.369 809.487 911.369C794.656 911.369 783.952 906.63 776.737 901.066L766.646 917.759C778.388 926.412 793.218 930.538 809.275 930.538C837.71 930.538 854.191 917.146 854.191 898.401C854.191 881.095 841.223 872.041 819.791 868.929L809.699 867.491C800.433 866.265 793.006 864.402 793.006 857.824C793.006 850.609 800.009 846.294 811.751 846.294C824.318 846.294 836.484 851.033 842.449 854.735L851.715 837.429Z" fill="#231F20" style="fill:#231F20;fill:color(display-p3 0.1373 0.1216 0.1255);fill-opacity:1;"/>
<path d="M345.822 878.826C345.822 908.699 366.617 930.532 398.353 930.532C413.184 930.532 423.063 927.232 433.768 918.791L423.464 901.484C415.448 907.261 407.007 910.35 397.717 910.35C380.623 910.137 368.079 897.783 368.079 878.826C368.079 859.869 380.623 847.514 397.717 847.302C407.007 847.302 415.448 850.391 423.464 856.167L433.768 838.861C423.063 830.42 413.184 827.119 398.353 827.119C366.617 827.119 345.822 848.952 345.822 878.826Z" fill="#231F20" style="fill:#231F20;fill:color(display-p3 0.1373 0.1216 0.1255);fill-opacity:1;"/>
<path d="M552.327 827.127C539.972 827.127 531.932 832.904 526.368 841.557V829.603H505.171V928.065H526.58V872.845C526.58 856.576 533.583 847.522 547.588 847.522C551.926 847.522 556.453 848.135 560.98 849.998L567.559 829.815C562.843 827.952 556.642 827.127 552.327 827.127Z" fill="#231F20" style="fill:#231F20;fill:color(display-p3 0.1373 0.1216 0.1255);fill-opacity:1;"/>
<path d="M631.884 827.127C619.529 827.127 611.489 832.904 605.924 841.557V829.603H584.728V928.065H606.137V872.845C606.137 856.576 613.139 847.522 627.145 847.522C631.483 847.522 636.01 848.135 640.537 849.998L647.115 829.815C642.4 827.952 636.199 827.127 631.884 827.127Z" fill="#231F20" style="fill:#231F20;fill:color(display-p3 0.1373 0.1216 0.1255);fill-opacity:1;"/>
<path d="M481.793 928.02H460.244V829.7H481.793V928.02ZM470.902 780.563C473.024 780.563 475.004 780.94 476.866 781.742C478.715 782.519 480.308 783.604 481.676 784.972C483.034 786.34 484.127 787.943 484.906 789.782C485.718 791.644 486.076 793.625 486.076 795.747C486.076 797.869 485.699 799.849 484.906 801.689C484.133 803.55 483.04 805.132 481.676 806.476C480.318 807.796 478.705 808.857 476.866 809.587C474.999 810.342 473.024 810.719 470.902 810.719C468.78 810.719 466.799 810.342 464.96 809.587C463.092 808.857 461.517 807.796 460.173 806.476C458.852 805.133 457.814 803.551 457.06 801.689C456.305 799.849 455.929 797.869 455.929 795.747C455.929 793.625 456.305 791.645 457.06 789.782C457.814 787.943 458.852 786.34 460.173 784.972C461.512 783.605 463.096 782.52 464.96 781.742C466.808 780.94 468.78 780.563 470.902 780.563Z" fill="#231F20" style="fill:#231F20;fill:color(display-p3 0.1373 0.1216 0.1255);fill-opacity:1;"/>
<path d="M753.378 886.363C753.378 894.167 752.081 900.863 749.534 906.475C746.964 912.086 743.593 916.66 739.396 920.221C735.199 923.781 730.412 926.398 725.013 928.072C719.59 929.746 714.049 930.595 708.391 930.595C702.708 930.595 697.167 929.746 691.768 928.072C686.345 926.398 681.535 923.781 677.315 920.221C673.094 916.66 669.723 912.086 667.176 906.475C664.653 900.863 663.38 894.167 663.38 886.363V829.705H684.671V884.406C684.671 889.121 685.284 893.153 686.487 896.478C687.713 899.778 689.387 902.466 691.509 904.518C693.631 906.569 696.154 908.078 699.054 908.997C701.954 909.917 705.066 910.389 708.391 910.389C711.692 910.389 714.804 909.917 717.704 908.997C720.604 908.078 723.127 906.569 725.249 904.518C727.395 902.466 729.045 899.778 730.271 896.478C731.497 893.153 732.087 889.121 732.087 884.406V829.705H753.378V886.363Z" fill="#231F20" style="fill:#231F20;fill:color(display-p3 0.1373 0.1216 0.1255);fill-opacity:1;"/>
</svg>
