<svg width="256" height="55" viewBox="0 0 256 55" fill="none" xmlns="http://www.w3.org/2000/svg">
<path d="M27.8533 54.5069C43.2362 54.5069 55.7066 42.4173 55.7066 27.504C55.7066 12.5908 43.2362 0.50116 27.8533 0.50116C12.4703 0.50116 0 12.5908 0 27.504C0 42.4173 12.4703 54.5069 27.8533 54.5069Z" fill="#00AED6" style="fill:#00AED6;fill:color(display-p3 0.0000 0.6824 0.8392);fill-opacity:1;"/>
<path fill-rule="evenodd" clip-rule="evenodd" d="M44.0844 26.6652C43.9923 25.0226 43.2313 23.4812 41.9666 22.3754C40.7018 21.2695 39.0353 20.6885 37.3286 20.7582H19.7357C19.5827 20.7577 19.4312 20.7282 19.29 20.6713C19.1488 20.6144 19.0207 20.5313 18.9128 20.4267C18.805 20.3222 18.7196 20.1981 18.6615 20.0618C18.6034 19.9254 18.5738 19.7794 18.5743 19.632C18.5743 19.0098 19.0937 18.5057 19.7357 18.5057H37.5617C37.5173 17.3712 37.1001 16.2796 36.3704 15.3879C35.6407 14.4963 34.6359 13.8506 33.5009 13.5438C28.3071 12.6547 22.9911 12.6547 17.7973 13.5438C16.3505 13.8928 15.046 14.6523 14.0528 15.7238C13.0597 16.7953 12.4237 18.1295 12.2275 19.5532C11.4035 24.8531 11.4035 30.2416 12.2275 35.5415C12.5295 37.044 13.298 38.4229 14.4312 39.4959C15.5645 40.5689 17.0091 41.2855 18.5743 41.5509C25.0215 42.3273 31.5439 42.3273 37.9911 41.5509C39.3931 41.2693 40.6677 40.5702 41.6343 39.5525C42.6009 38.5348 43.2105 37.25 43.3769 35.8802C43.9494 32.84 44.1907 29.7526 44.0844 26.6652ZM38.306 30.4457V31.446C38.3065 31.5934 38.2769 31.7394 38.2188 31.8758C38.1607 32.0121 38.0753 32.1362 37.9675 32.2407C37.8596 32.3453 37.7315 32.4284 37.5903 32.4853C37.4491 32.5422 37.2976 32.5717 37.1446 32.5722C36.9915 32.5717 36.8401 32.5422 36.6989 32.4853C36.5577 32.4284 36.4295 32.3453 36.3216 32.2407C36.2138 32.1362 36.1284 32.0121 36.0703 31.8758C36.0122 31.7394 35.9826 31.5934 35.9832 31.446V30.4457C35.7186 30.2191 35.5319 29.9203 35.4478 29.5891C35.3636 29.2579 35.386 28.9099 35.512 28.5912C35.638 28.2726 35.8616 27.9983 36.1531 27.8049C36.4447 27.6114 36.7905 27.5079 37.1446 27.508C37.4986 27.5079 37.8444 27.6114 38.136 27.8049C38.4276 27.9983 38.6512 28.2726 38.7771 28.5912C38.9031 28.9099 38.9255 29.2579 38.8414 29.5891C38.7572 29.9203 38.5705 30.2191 38.306 30.4457Z" fill="white" style="fill:white;fill-opacity:1;"/>
<path d="M77.4543 40.9326C78.6113 42.5381 80.174 43.8332 81.995 44.6958C83.816 45.5585 85.8351 45.9601 87.862 45.863C92.7162 45.863 96.2822 42.8583 96.2822 38.7746V36.6205H96.1636C93.5054 39.1408 89.8781 40.4561 86.1689 40.2513C83.2843 40.3278 80.431 39.6598 77.9048 38.3164C75.3787 36.9731 73.2718 35.0034 71.8027 32.6116C70.3236 30.2129 69.5305 27.4798 69.5039 24.6903C69.4773 21.9007 70.2183 19.1541 71.6514 16.7296C73.0765 14.3135 75.1469 12.3083 77.6477 10.9221C80.1486 9.53584 82.989 8.81896 85.8745 8.84576C87.7471 8.73024 89.6246 8.98201 91.3932 9.58581C93.1618 10.1896 94.7847 11.1329 96.1636 12.3585H96.2822V9.41283H104.584V38.6643C104.584 47.1664 97.6317 53.0616 87.862 53.0616C84.7043 53.2258 81.5514 52.6635 78.6642 51.4213C75.7771 50.179 73.2385 48.2926 71.2588 45.9181L77.4543 40.9326ZM95.9346 22.7311C95.9346 19.3327 91.9555 16.2138 87.5144 16.2138C81.8995 16.2138 78.1577 19.502 78.1577 24.4324C77.9941 26.7715 78.8938 29.0595 80.6318 30.6859C81.4871 31.4899 82.5154 32.1031 83.6439 32.4821C84.7725 32.8611 85.9737 32.9967 87.1627 32.8794C92.0169 32.8794 95.9346 29.9338 95.9346 26.2478V22.7311ZM126.442 8.56222C136.559 8.56222 143.928 15.5325 143.928 24.4324C143.928 33.3322 136.559 40.3064 126.442 40.3064C123.441 40.4933 120.445 39.8811 117.782 38.537C115.119 37.1929 112.891 35.1687 111.344 32.6864C109.786 30.1951 108.963 27.3422 108.963 24.4343C108.963 21.5265 109.786 18.6735 111.344 16.1823C112.891 13.6999 115.119 11.6758 117.782 10.3317C120.445 8.9876 123.441 8.37541 126.442 8.56222ZM126.442 15.9263C124.111 15.9492 121.884 16.8618 120.251 18.464C118.618 20.0661 117.712 22.2268 117.731 24.4717C117.734 26.7166 118.661 28.8689 120.309 30.4563C121.957 32.0437 124.192 32.9364 126.524 32.9384C128.855 32.9259 131.086 32.0232 132.726 30.4285C134.367 28.8337 135.284 26.6772 135.275 24.4324C135.329 23.2978 135.137 22.1648 134.711 21.1057C134.285 20.0466 133.635 19.0846 132.801 18.2812C131.972 17.4816 130.977 16.8591 129.881 16.454C128.786 16.049 127.614 15.8666 126.442 15.9263ZM148.419 9.41283H156.72V12.0749H156.843C158.183 10.8788 159.757 9.95208 161.473 9.34892C163.189 8.74576 165.013 8.47831 166.838 8.56222C175.753 8.71974 182.901 15.7609 182.917 24.4048C182.934 33.0526 175.81 40.1174 166.895 40.3064C163.378 40.3852 159.943 39.2629 157.191 37.1324H157.072V52.211H148.419V9.41283ZM165.496 15.9893C160.932 15.9893 157.072 19.1043 157.072 22.5067V26.3029C157.072 29.9338 160.818 32.9345 165.549 32.9345C167.875 32.9199 170.1 32.0165 171.734 30.4229C173.368 28.8293 174.278 26.6759 174.264 24.4363C174.265 23.327 174.038 22.2285 173.598 21.2035C173.158 20.1784 172.512 19.247 171.698 18.4622C170.884 17.6775 169.917 17.0548 168.853 16.6299C167.789 16.2049 166.648 15.9859 165.496 15.9854V15.9893ZM199.59 21.5419C205.262 20.8055 206.959 20.0139 206.959 18.482C206.959 16.4973 204.792 15.308 201.463 15.308C199.721 15.1695 197.984 15.6362 196.568 16.6236C195.152 17.611 194.149 19.0539 193.742 20.6913L185.555 19.0491C186.725 12.9255 193.219 8.56222 201.226 8.56222C210.288 8.56222 215.907 13.0397 215.907 20.3487V39.4558H208.125V36.1676H208.002C206.706 37.5866 205.088 38.6984 203.273 39.4162C201.457 40.1341 199.495 40.4388 197.537 40.3064C190.695 40.3064 185.964 36.6795 185.964 31.3475C185.964 25.7358 189.824 22.8454 199.59 21.5419ZM207.659 24.7159H207.544C206.779 25.7949 205.144 26.4171 200.935 27.1575C195.848 28.0632 194.037 29.0241 194.037 30.7804C194.037 32.5958 195.558 33.3913 198.829 33.3913C203.802 33.3913 207.663 31.1782 207.663 28.2877L207.659 24.7159ZM232.375 37.8137L218.05 9.41283H227.582L236.996 29.0241H237.111L246.41 9.41283H256L234.543 52.2189H225.01L232.375 37.8137Z" fill="black" style="fill:black;fill-opacity:1;"/>
</svg>
