<svg width="75" height="47" viewBox="0 0 75 47" fill="none" xmlns="http://www.w3.org/2000/svg">
<path d="M74.061 0.854004H0.367004V46.965H74.061V0.854004Z" fill="#0058A0" style="fill:#0058A0;fill:color(display-p3 0.0000 0.3451 0.6275);fill-opacity:1;"/>
<path d="M73.182 1.71698H1.2V46.102H73.182V1.71698Z" fill="white" style="fill:white;fill-opacity:1;"/>
<path d="M70.906 3.87H3.37601V44.171H70.906V3.87Z" fill="#0058A0" style="fill:#0058A0;fill:color(display-p3 0.0000 0.3451 0.6275);fill-opacity:1;"/>
<path d="M5.621 24.762L23.047 24.766L19.879 40.658L5.621 24.762Z" fill="white" style="fill:white;fill-opacity:1;"/>
<path d="M5.621 24.762L23.047 24.766L19.879 40.658L5.621 24.762Z" stroke="#0058A0" style="stroke:#0058A0;stroke:color(display-p3 0.0000 0.3451 0.6275);stroke-opacity:1;" stroke-width="0.006"/>
<path d="M29.056 6.80701L26.048 22.427H43.172L29.056 6.80701Z" fill="white" style="fill:white;fill-opacity:1;"/>
<path d="M29.056 6.80701L26.048 22.427H43.172L29.056 6.80701Z" stroke="#0058A0" style="stroke:#0058A0;stroke:color(display-p3 0.0000 0.3451 0.6275);stroke-opacity:1;" stroke-width="0.006"/>
<path d="M58.659 24.858L54.562 24.856L52.5 35.423C52.408 35.49 52.16 37.518 50.278 37.361C48.004 37.173 48.715 34.943 48.715 34.943L50.528 24.851L46.505 24.857L44.482 35.472C44.482 35.472 43.214 40.619 49.903 41.01C49.903 41.01 55.545 41.814 56.802 34.926C58.133 27.624 58.659 24.858 58.659 24.858Z" fill="white" style="fill:white;fill-opacity:1;"/>
<path d="M58.659 24.858L54.562 24.856L52.5 35.423C52.408 35.49 52.16 37.518 50.278 37.361C48.004 37.173 48.715 34.943 48.715 34.943L50.528 24.851L46.505 24.857L44.482 35.472C44.482 35.472 43.214 40.619 49.903 41.01C49.903 41.01 55.545 41.814 56.802 34.926C58.133 27.624 58.659 24.858 58.659 24.858Z" stroke="#0058A0" style="stroke:#0058A0;stroke:color(display-p3 0.0000 0.3451 0.6275);stroke-opacity:1;" stroke-width="0.006"/>
<path d="M57.153 35.43C57.153 35.43 55.45 40.678 62.28 40.989C62.28 40.989 67.999 40.881 67.985 35.805C67.985 35.805 68.422 32.799 63.608 30.751C63.608 30.751 62.596 30.301 62.54 29.285C62.484 28.269 63.569 28.078 63.569 28.078C63.569 28.078 64.313 27.878 64.715 28.327C65.004 28.651 64.962 29.887 64.962 29.887H68.775C68.775 29.887 70.268 24.631 64.078 24.565C64.078 24.565 59.479 24.28 58.484 28.768C58.484 28.768 57.847 31.434 59.965 32.809C62.081 34.186 62.519 34.225 63.292 34.774C64.063 35.324 64.145 37.37 62.552 37.473C60.758 37.589 61.13 35.434 61.096 35.434L57.153 35.43Z" fill="white" style="fill:white;fill-opacity:1;"/>
<path d="M57.153 35.43C57.153 35.43 55.45 40.678 62.28 40.989C62.28 40.989 67.999 40.881 67.985 35.805C67.985 35.805 68.422 32.799 63.608 30.751C63.608 30.751 62.596 30.301 62.54 29.285C62.484 28.269 63.569 28.078 63.569 28.078C63.569 28.078 64.313 27.878 64.715 28.327C65.004 28.651 64.962 29.887 64.962 29.887H68.775C68.775 29.887 70.268 24.631 64.078 24.565C64.078 24.565 59.479 24.28 58.484 28.768C58.484 28.768 57.847 31.434 59.965 32.809C62.081 34.186 62.519 34.225 63.292 34.774C64.063 35.324 64.145 37.37 62.552 37.473C60.758 37.589 61.13 35.434 61.096 35.434L57.153 35.43Z" stroke="#0058A0" style="stroke:#0058A0;stroke:color(display-p3 0.0000 0.3451 0.6275);stroke-opacity:1;" stroke-width="0.006"/>
<path d="M6.05101 22.436L26.359 6.66302L23.419 22.444L6.05101 22.436Z" fill="white" style="fill:white;fill-opacity:1;"/>
<path d="M6.05101 22.436L26.359 6.66302L23.419 22.444L6.05101 22.436Z" stroke="#0058A0" style="stroke:#0058A0;stroke:color(display-p3 0.0000 0.3451 0.6275);stroke-opacity:1;" stroke-width="0.006"/>
<path d="M37.848 24.772L41.995 24.768L39.702 36.956L44.077 36.964L43.407 40.61L34.814 40.612L37.848 24.772Z" fill="white" style="fill:white;fill-opacity:1;"/>
<path d="M37.848 24.772L41.995 24.768L39.702 36.956L44.077 36.964L43.407 40.61L34.814 40.612L37.848 24.772Z" stroke="#0058A0" style="stroke:#0058A0;stroke:color(display-p3 0.0000 0.3451 0.6275);stroke-opacity:1;" stroke-width="0.006"/>
<path d="M28.991 28.565L28.344 32.018H29.854C32.444 31.969 32.344 30.094 32.344 30.094C32.162 28.532 30.568 28.565 30.568 28.565H28.991ZM25.559 24.764L30.894 24.78C30.894 24.78 34.739 24.911 35.963 27.596C37.186 30.282 35.497 33.206 35.19 33.44C34.883 33.674 33.76 36.243 27.575 35.893L26.553 40.756L22.504 40.758L25.559 24.764Z" fill="white" style="fill:white;fill-opacity:1;"/>
<path d="M28.991 28.565L28.344 32.018H29.854C32.444 31.969 32.344 30.094 32.344 30.094C32.162 28.532 30.568 28.565 30.568 28.565H28.991ZM25.559 24.764L30.894 24.78C30.894 24.78 34.739 24.911 35.963 27.596C37.186 30.282 35.497 33.206 35.19 33.44C34.883 33.674 33.76 36.243 27.575 35.893L26.553 40.756L22.504 40.758L25.559 24.764Z" stroke="#0058A0" style="stroke:#0058A0;stroke:color(display-p3 0.0000 0.3451 0.6275);stroke-opacity:1;" stroke-width="0.006"/>
</svg>
